<svg width="22" height="21" viewBox="0 0 22 21" fill="none" xmlns="http://www.w3.org/2000/svg">
<path d="M10.645 19.4107L10.6384 19.4071L10.6158 19.3949C10.5965 19.3844 10.5689 19.3693 10.5336 19.3496C10.4629 19.3101 10.3612 19.2524 10.233 19.1769C9.9765 19.0261 9.61317 18.8039 9.17855 18.515C8.31074 17.9381 7.15122 17.0901 5.9886 16.0063C3.68781 13.8615 1.25 10.6751 1.25 6.75C1.25 3.82194 3.7136 1.5 6.6875 1.5C8.43638 1.5 10.0023 2.29909 11 3.5516C11.9977 2.29909 13.5636 1.5 15.3125 1.5C18.2864 1.5 20.75 3.82194 20.75 6.75C20.75 10.6751 18.3122 13.8615 16.0114 16.0063C14.8488 17.0901 13.6893 17.9381 12.8215 18.515C12.3868 18.8039 12.0235 19.0261 11.767 19.1769C11.6388 19.2524 11.5371 19.3101 11.4664 19.3496C11.4311 19.3693 11.4035 19.3844 11.3842 19.3949L11.3616 19.4071L11.355 19.4107L11.3523 19.4121C11.1323 19.5289 10.8677 19.5289 10.6477 19.4121L10.645 19.4107Z" stroke="#666666" stroke-width="1.5" stroke-linejoin="round"/>
</svg>
